<svg width="52" height="51" viewBox="0 0 52 51" fill="none" xmlns="http://www.w3.org/2000/svg">
<path d="M42 3H21C17.134 3 14 6.13401 14 10V36C14 42.6274 19.3726 48 26 48H37C43.6274 48 49 42.6274 49 36V10C49 6.13401 45.866 3 42 3Z" fill="#111827" stroke="#111827" stroke-width="6"/>
<rect x="3" y="14" width="18" height="19" rx="4" stroke="#111827" stroke-width="6"/>
<path d="M20.108 28.0426L20.2699 27.0881L26.3807 24.3438L26.1719 25.6435L21.6804 27.5483L21.723 27.4716L21.7017 27.6548L21.6634 27.5824L25.5369 29.483L25.3153 30.7869L20.108 28.0426ZM33.5842 21.8636L29.0501 32.3125H27.9123L32.4464 21.8636H33.5842ZM41.2159 28.0426L35.1051 30.7869L35.3267 29.483L39.8054 27.5824L39.7586 27.6548L39.7841 27.4716L39.8225 27.5483L35.9617 25.6435L36.1705 24.3438L41.3779 27.0881L41.2159 28.0426Z" fill="#6B6F7B"/>
</svg>
